Coordinates
version=1
nRows=16
nColumns=42
inDegrees=yes

Units are S.I. units (second, meters, Newtons, ...)
If the header above contains a line with 'inDegrees', this indicates whether rotational values are in degrees (yes) or radians (no).

endheader
time	pelvis_tilt	pelvis_list	pelvis_rotation	pelvis_tx	pelvis_ty	pelvis_tz	hip_flexion_r	hip_adduction_r	hip_rotation_r	knee_angle_r	knee_adduction_r	knee_angle_r_beta	ankle_angle_r	subtalar_angle_r	mtp_angle_r	hip_flexion_l	hip_adduction_l	hip_rotation_l	knee_angle_l	knee_adduction_l	knee_angle_l_beta	ankle_angle_l	subtalar_angle_l	mtp_angle_l	lumbar_extension	lumbar_bending	lumbar_rotation	arm_flex_r	arm_add_r	arm_rot_r	elbow_flex_r	pro_sup_r	wrist_flex_r	wrist_dev_r	arm_flex_l	arm_add_l	arm_rot_l	elbow_flex_l	pro_sup_l	wrist_flex_l	wrist_dev_l
      2.94000000	     -0.94362553	     -2.36419860	     -2.19146576	      1.12920104	      0.88082337	     -0.14295893	    -10.19440298	     -1.46166048	     -3.48382291	      6.19101237	     11.75559336	      0.10805355	     16.99785628	      4.29270964	     -7.50033328	     23.18745034	    -13.21687290	     -4.10601499	     15.49284749	     17.04333814	      0.27040120	      2.96314462	     -7.17169284	     -7.50033328	    -16.65274818	      5.43375448	      2.14105776	     -5.61981272	    -14.09632157	     -3.62871159	     18.70455296	     90.00000001	      0.00000000	      0.00000000	    -12.21470571	     -6.39422353	      6.12311626	     21.81709691	     90.00000001	      0.00000000	      0.00000000
      2.95000000	     -0.67572880	     -2.31405473	     -2.45533132	      1.13964337	      0.87935131	     -0.14338455	    -11.17557470	     -1.74517744	     -3.51097406	      6.34016769	     12.00771324	      0.11065680	     17.36176340	      4.33677213	     -7.50031846	     22.67544792	    -12.94345702	     -5.14102942	     12.50562629	     16.46544648	      0.21826435	      2.96175364	     -6.20856259	     -7.50031846	    -16.97230988	      5.20176343	      2.29124032	     -5.61439488	    -14.16839052	     -3.57166054	     18.65414713	     90.00000001	      0.00000000	      0.00000000	    -12.30202276	     -6.25789410	      6.18641968	     21.90243190	     90.00000001	      0.00000000	      0.00000000
      2.96000000	     -0.73053114	     -2.48940345	     -2.65920576	      1.14990878	      0.87738421	     -0.14362297	    -11.74368343	     -1.63734502	     -3.58159829	      6.61094560	     12.01480109	      0.11538277	     17.70966505	      4.38911817	     -7.50030643	     22.75326428	    -12.96639585	     -6.10948164	     10.13288369	     15.97348783	      0.17685218	      3.03443284	     -5.21911007	     -7.50030643	    -16.95285706	      5.20222686	      2.45412875	     -5.64662301	    -14.21446196	     -3.51765043	     18.61983099	     90.00000001	      0.00000000	      0.00000000	    -12.40611584	     -6.14492337	      6.24806529	     21.99874595	     90.00000001	      0.00000000	      0.00000000
      2.97000000	     -0.96445016	     -2.76933016	     -2.84103672	      1.16022295	      0.87516445	     -0.14388839	    -12.11729164	     -1.39075094	     -3.54682789	      6.87276078	     11.97942110	      0.11995230	     18.02370749	      4.45593726	     -7.50030062	     23.13015083	    -13.12958754	     -7.03595919	      8.20411826	     15.57149251	      0.14318888	      3.12221233	     -4.27445147	     -7.50030062	    -16.72919054	      5.32641775	      2.61676602	     -5.70701501	    -14.25705412	     -3.47648190	     18.56675383	     90.00000001	      0.00000000	      0.00000000	    -12.55318516	     -6.02696330	      6.29459230	     22.15945861	     90.00000001	      0.00000000	      0.00000000
      2.98000000	     -0.87975460	     -2.86030449	     -3.09061745	      1.17095733	      0.87338099	     -0.14428914	    -12.87802851	     -1.48014400	     -3.56368861	      7.12199263	     12.07076400	      0.12430222	     18.28274111	      4.61546180	     -7.50029285	     23.01752858	    -13.04883593	     -8.07369525	      6.40688170	     15.14807375	      0.11182118	      3.45400020	     -3.48641953	     -7.50029285	    -16.83940451	      5.21007102	      2.81523107	     -5.77247407	    -14.29810052	     -3.44699216	     18.56025922	     90.00000001	      0.00000000	      0.00000000	    -12.66362278	     -5.94131799	      6.37607346	     22.31584079	     90.00000001	      0.00000000	      0.00000000
      2.99000000	     -0.98075443	     -2.98860641	     -3.31457390	      1.18175353	      0.87136604	     -0.14467094	    -13.43527667	     -1.48439623	     -3.46798070	      7.36335669	     12.07422606	      0.12851482	     18.48795018	      4.79263608	     -7.50028753	     23.23926007	    -13.05380949	     -9.00211520	      5.17903602	     14.85450442	      0.09039123	      3.81829176	     -2.97396645	     -7.50028753	    -16.73186333	      5.13267517	      2.98879519	     -5.86526430	    -14.30054757	     -3.42358416	     18.53629107	     90.00000001	      0.00000000	      0.00000000	    -12.82068016	     -5.87345676	      6.43916678	     22.53526489	     90.00000001	      0.00000000	      0.00000000
      3.00000000	     -1.05129633	     -3.05905152	     -3.53979072	      1.19280538	      0.86944391	     -0.14512642	    -14.03645224	     -1.58229785	     -3.35805907	      7.62293720	     12.06209554	      0.13304535	     18.63151972	      4.96024041	     -7.50028338	     23.45373881	    -13.01464110	     -9.81435314	      4.41028977	     14.63975982	      0.07697408	      4.23726731	     -2.71708353	     -7.50028338	    -16.62890091	      4.98161534	      3.15546077	     -5.97915007	    -14.28809023	     -3.40924123	     18.52784976	     90.00000001	      0.00000000	      0.00000000	    -12.97339211	     -5.84696076	      6.49896743	     22.73279244	     90.00000001	      0.00000000	      0.00000000
      3.01000000	     -1.01314423	     -3.01516318	     -3.85237210	      1.20400113	      0.86776496	     -0.14576608	    -14.71088060	     -1.93641820	     -3.11405770	      7.94018562	     12.20009959	      0.13858238	     18.78579254	      5.23622138	     -7.50027783	     23.50398881	    -12.83884956	    -10.58439146	      3.97338362	     14.40924619	      0.06934863	      4.61536914	     -2.52716022	     -7.50027783	    -16.65348439	      4.69832367	      3.37092471	     -6.07901777	    -14.28581579	     -3.40472201	     18.52748314	     90.00000001	      0.00000000	      0.00000000	    -13.11660065	     -5.79960170	      6.61129923	     22.98463618	     90.00000001	      0.00000000	      0.00000000
      3.02000000	     -1.12580709	     -3.13286085	     -3.91394066	      1.21519426	      0.86596084	     -0.14651609	    -15.23562691	     -1.98199846	     -2.97718746	      8.28037245	     12.18721885	      0.14451976	     18.74379458	      5.29221986	     -7.50027648	     23.93086367	    -12.82162650	    -10.66677789	      4.11636979	     14.33059967	      0.07184421	      4.63405883	     -2.48237048	     -7.50027648	    -16.50659431	      4.62884848	      3.38942201	     -6.21698869	    -14.25255363	     -3.40437114	     18.58446316	     90.00000001	      0.00000000	      0.00000000	    -13.20405787	     -5.75776826	      6.61413151	     23.07360272	     90.00000001	      0.00000000	      0.00000000
      3.03000000	     -1.23772946	     -3.19205999	     -4.05556265	      1.22674721	      0.86431020	     -0.14731575	    -15.74821802	     -2.12271083	     -2.74906162	      8.65080882	     12.14106857	      0.15098510	     18.68361716	      5.36617255	     -7.50027517	     24.21669610	    -12.76512711	    -10.58603225	      4.38388145	     14.29191074	      0.07651317	      4.62871708	     -2.44459049	     -7.50027517	    -16.31904077	      4.49428766	      3.44752665	     -6.37424439	    -14.22365331	     -3.40584617	     18.62375955	     90.00000001	      0.00000000	      0.00000000	    -13.33628373	     -5.70913385	      6.61951279	     23.17011744	     90.00000001	      0.00000000	      0.00000000
      3.04000000	     -1.10291950	     -2.62484408	     -4.54488610	      1.23838270	      0.86318613	     -0.14823543	    -16.38027881	     -3.29123668	     -2.11975134	      9.14729295	     12.52385338	      0.15965038	     18.62062770	      5.64781376	     -7.50026943	     24.18402323	    -12.08709024	    -11.05638039	      5.21677509	     14.08443767	      0.09104990	      4.38288909	     -3.27654244	     -7.50026943	    -16.40170297	      3.58395023	      3.72866433	     -6.43287163	    -14.13530271	     -3.43918167	     18.48790623	     90.00000001	      0.00000000	      0.00000000	    -13.49592463	     -5.81013020	      6.84081959	     23.64344540	     90.00000001	      0.00000000	      0.00000000
      3.05000000	     -1.03827121	     -2.30935130	     -4.73695227	      1.25011380	      0.86214840	     -0.14939176	    -16.92946356	     -4.02074246	     -1.78174070	      9.74410452	     12.71100565	      0.17006671	     18.36046349	      5.75155421	     -7.50026412	     24.27120727	    -11.60920643	    -10.64748712	      6.12340132	     14.02606045	      0.10687351	      3.52699355	     -3.65571613	     -7.50026412	    -16.40138678	      3.02001432	      3.78177135	     -6.54719472	    -14.04242673	     -3.50216455	     18.48963494	     90.00000001	      0.00000000	      0.00000000	    -13.56978814	     -5.85844405	      6.98031501	     23.81673937	     90.00000001	      0.00000000	      0.00000000
      3.06000000	     -1.02772131	     -2.09629894	     -4.94591933	      1.26198191	      0.86124449	     -0.15034585	    -17.35860188	     -4.54347427	     -1.23066978	     10.41868137	     12.73607007	      0.18184029	     18.05198020	      5.85927394	     -7.50026151	     24.34635222	    -11.35723600	     -9.76545955	      7.09998465	     14.20551883	      0.12391811	      2.92613905	     -3.63072907	     -7.50026151	    -16.33425550	      2.54268708	      3.90419660	     -6.70495745	    -13.95066457	     -3.51736495	     18.52986758	     90.00000001	      0.00000000	      0.00000000	    -13.63039424	     -5.91423828	      6.99973140	     23.95876289	     90.00000001	      0.00000000	      0.00000000
      3.07000000	     -1.04093931	     -1.54418209	     -4.98715897	      1.27373248	      0.86057955	     -0.15203537	    -17.57586646	     -5.59018646	     -1.29720489	     11.52006856	     13.07131688	      0.20106313	     17.44408857	      5.93118456	     -7.50023254	     24.39664049	    -10.47984598	     -7.89224428	      7.81776298	     14.19805719	      0.13644570	      0.13791688	     -7.28747467	     -7.50023254	    -16.23067474	      1.78270216	      3.75041321	     -6.72154920	    -13.77572730	     -3.92223720	     18.35994850	     90.00000001	      0.00000000	      0.00000000	    -13.67080820	     -6.04215043	      7.32371587	     24.15542228	     90.00000001	      0.00000000	      0.00000000
      3.08000000	     -0.91153859	     -1.26290998	     -5.04206827	      1.28577345	      0.86030473	     -0.15347836	    -17.97881048	     -6.26311427	     -0.95948974	     12.51058831	     13.29914762	      0.21835096	     16.55623630	      5.84311224	     -7.50022861	     24.47777389	    -10.14360610	     -7.05842112	      9.40887313	     14.48495011	      0.16421581	     -1.02251141	     -7.33316819	     -7.50022861	    -16.29031440	      1.28495898	      3.67326800	     -6.81683088	    -13.69298101	     -3.89625525	     18.35673596	     90.00000001	      0.00000000	      0.00000000	    -13.69243294	     -6.10798365	      7.33560252	     24.28510122	     90.00000001	      0.00000000	      0.00000000
      3.09000000	     -0.87266159	     -0.89266339	     -5.02922594	      1.29789717	      0.86017194	     -0.15505376	    -18.13383108	     -6.97797856	     -0.83174608	     13.80004951	     13.43703491	      0.24085630	     15.37694219	      5.53725493	     -7.50022323	     24.70455050	     -9.68944267	     -6.28881292	     11.20185207	     14.73930291	      0.19550920	     -2.29748732	     -7.83585267	     -7.50022323	    -16.23372287	      0.71011252	      3.53730415	     -6.91264523	    -13.54623371	     -3.92010600	     18.27399639	     90.00000001	      0.00000000	      0.00000000	    -13.71094221	     -6.22208050	      7.39805014	     24.38532147	     90.00000001	      0.00000000	      0.00000000
